<?xml version="1.0" encoding="UTF-8" standalone="no"?>
<svg
   width="68"
   height="68"
   viewBox="0 0 68 68"
   fill="none"
   version="1.1"
   id="svg27"
   sodipodi:docname="umbrel-qr-icon.svg"
   inkscape:version="1.2-dev (f4e7cea, 2021-09-24)"
   xmlns:inkscape="http://www.inkscape.org/namespaces/inkscape"
   xmlns:sodipodi="http://sodipodi.sourceforge.net/DTD/sodipodi-0.dtd"
   xmlns="http://www.w3.org/2000/svg"
   xmlns:svg="http://www.w3.org/2000/svg">
  <sodipodi:namedview
     id="namedview29"
     pagecolor="#505050"
     bordercolor="#eeeeee"
     borderopacity="1"
     inkscape:pageshadow="0"
     inkscape:pageopacity="0"
     inkscape:pagecheckerboard="0"
     inkscape:blackoutopacity="0.0"
     showgrid="false"
     inkscape:zoom="4.2998332"
     inkscape:cx="37.792164"
     inkscape:cy="17.675104"
     inkscape:window-width="1920"
     inkscape:window-height="1015"
     inkscape:window-x="0"
     inkscape:window-y="0"
     inkscape:window-maximized="1"
     inkscape:current-layer="svg27" />
  <rect
     x="2.2827072"
     y="2.2827072"
     width="63.434586"
     height="63.434586"
     rx="10.751624"
     fill="url(#paint1_linear)"
     id="rect4-7"
     style="fill:#ffffff;stroke-width:1.07516" />
  <rect
     x="4.5"
     y="4.5"
     width="59"
     height="59"
     rx="10"
     fill="url(#paint1_linear)"
     id="rect4"
     style="fill:url(#paint1_linear)" />
  <defs
     id="defs25">
    <linearGradient
       id="paint0_linear"
       x1="0"
       y1="0"
       x2="68"
       y2="68"
       gradientUnits="userSpaceOnUse">
      <stop
         stop-color="white"
         id="stop14" />
    </linearGradient>
    <linearGradient
       id="paint1_linear"
       x1="4"
       y1="5"
       x2="63"
       y2="64"
       gradientUnits="userSpaceOnUse"
       gradientTransform="translate(0.5,-0.5)">
      <stop
         stop-color="#9289F4"
         id="stop17"
         style="stop-color:#4d4d4d;stop-opacity:1" />
      <stop
         offset="1"
         stop-color="#5351FB"
         id="stop19"
         style="stop-color:#808080;stop-opacity:1" />
    </linearGradient>
    <clipPath
       id="clip0">
      <path
         d="M15.7998 14.4399H51.7898V54.5599H15.7998V14.4399Z"
         fill="white"
         id="path22" />
    </clipPath>
  </defs>
  <g
     style="fill:none"
     id="g433"
     transform="matrix(0.02731257,0,0,0.02731257,21.743714,19.360462)">
    <path
       d="m 304.742,112.004 144,-82.2852 V 157.719 l -144,82.285 z"
       fill="#40607d"
       id="path382" />
    <path
       d="m 616.742,224 -24,16 V 112 l 24,-16.0001 z"
       fill="#40607d"
       id="path384" />
    <path
       d="M 52.6641,256.045 192.744,176 v 128 l -28.016,16.009 z"
       fill="#40607d"
       id="path386" />
    <path
       d="m 168.742,480 24,-16 v -52.211 l 88,50.947 V 416 l 24,-16 144,82.4 V 208 l -256,148.21 V 336 l -24,16 z"
       fill="#40607d"
       id="path388" />
    <path
       d="m 728.742,352 167.999,-96 v 443.935 c 0,71.771 -38.457,138.04 -100.772,173.648 L 448.742,1072 V 511.999 l 168,-95.999 v 127.999 l 112,-63.999 z"
       fill="#40607d"
       id="path390" />
    <path
       d="m 448.742,157.719 144,82.285 v -128 l -144,-82.2852 z"
       fill="#6891aa"
       id="path392" />
    <path
       d="m 304.742,240 -24,-16 V 95.9999 l 24,16.0001 z"
       fill="#6891aa"
       id="path394" />
    <path
       d="M 168.742,352 0.742188,256 v 443.935 c 0,71.771 38.457212,138.04 100.771812,173.648 L 448.742,1072 V 511.999 L 280.742,416 V 543.999 L 168.742,480 Z"
       fill="#6891aa"
       id="path396" />
    <path
       d="m 704.741,464 24,16 V 352 l -24,-16 v 20.21 L 448.742,208 v 274.4 l 144,-82.4 24,16 v 46.736 l 87.999,-50.947 z"
       fill="#6891aa"
       id="path398" />
    <path
       d="M 732.757,320.009 704.741,304 V 176 l 140.08,80.045 z"
       fill="#6891aa"
       id="path400" />
    <path
       d="m 448.742,29.6 144,82.4 24,-16.0001 -168,-95.9999 -168,95.9999 24,16.0001 z"
       fill="#a2bece"
       id="path402" />
    <path
       d="m 280.742,224 24,16 144,-82.281 144,82.285 24,-16.004 87.999,50.285 V 304 l 28.016,16.009 112.144,-64.009 -140.16,-80 24,-16 168,96 -168,96 -24,-16 v 20.21 L 448.742,208 l -256,148.21 V 336 l -24,16 L 0.742188,256 168.742,160 l 24,16 L 52.5821,256 164.728,320.009 192.744,304 v -29.716 z"
       fill="#a2bece"
       id="path404" />
    <path
       d="m 592.742,400 24,16 -168,95.999 -168,-95.999 24,-16 144,82.4 z"
       fill="#a2bece"
       id="path406" />
    <path
       d="m 192.742,411.789 88,50.947 v 81.263 l -112,-63.999 24,-16 z"
       fill="#a2bece"
       id="path408" />
    <path
       d="m 728.741,480 -111.999,63.999 v -81.263 l 87.999,-50.947 V 464 Z"
       fill="#a2bece"
       id="path410" />
  </g>
</svg>
