<svg width="100" height="100" viewBox="0 0 100 100" fill="none" xmlns="http://www.w3.org/2000/svg">
<path d="M93 0H7C3.13401 0 0 3.13401 0 7V93C0 96.866 3.13401 100 7 100H93C96.866 100 100 96.866 100 93V7C100 3.13401 96.866 0 93 0Z" fill="#B6B8B9"/>
<path d="M49.9632 22.4758L60.5585 28.463V19.1496L49.9632 13.1624V22.4758Z" fill="white"/>
<path d="M39.3679 28.4627L37.602 27.2985V17.9851L39.3679 19.1493V28.4627Z" fill="white"/>
<path d="M29.3612 36.6119L17 29.6269V61.9281C17 67.1502 19.8296 71.972 24.4146 74.5629L49.9632 89V48.2536L37.602 41.2687V50.582L29.3612 45.9254V36.6119Z" fill="white"/>
<path d="M68.7992 44.7612L70.5651 45.9254V36.6119L68.7992 35.4478V36.9183L49.9632 26.1343V46.1L60.5585 40.1045L62.3244 41.2687V44.6692L68.7992 40.9623V44.7612Z" fill="white"/>
<path d="M70.8606 34.2842L68.7993 33.1194V23.806L79.1061 29.6301L70.8606 34.2842Z" fill="white"/>
<path d="M49.9632 13.1537L60.5585 19.1493L62.3244 17.9851L49.9632 11L37.602 17.9851L39.3679 19.1493L49.9632 13.1537Z" fill="#E3E3E3"/>
<path d="M37.602 27.2985L39.3679 28.4627L49.9632 22.4758L60.5585 28.463L62.3244 27.2985L68.7992 30.9573V33.1194L70.8606 34.2842L79.112 29.6269L68.7992 23.806L70.5651 22.6418L82.9263 29.6269L70.5651 36.6119L68.7992 35.4478V36.9183L49.9632 26.1343L31.1271 36.9183V35.4478L29.3612 36.6119L17 29.6269L29.3612 22.6418L31.1271 23.806L20.8143 29.6269L29.0658 34.2842L31.1272 33.1194V30.9572L37.602 27.2985Z" fill="#E3E3E3"/>
<path d="M60.5585 40.1045L62.3244 41.2687L49.9632 48.2537L37.602 41.2687L39.3679 40.1045L49.9632 46.1L60.5585 40.1045Z" fill="#E3E3E3"/>
<path d="M31.1271 40.9622L37.602 44.6692V50.582L29.3612 45.9254L31.1271 44.7612V40.9622Z" fill="#E3E3E3"/>
<path d="M70.5651 45.9254L62.3244 50.582V44.6692L68.7992 40.9622V44.7612L70.5651 45.9254Z" fill="#E3E3E3"/>
</svg>
