<svg width="66" height="66" fill="none" version="1.1" viewBox="0 0 66 66" xmlns="http://www.w3.org/2000/svg">
 <rect width="66" height="66" rx="12" fill="#111316"/>
 <g transform="matrix(.05285272 0 0 .05285272 19.576868 44.709686)" stroke-width=".588926">
  <path d="m82.922773-80.555636c-13.604184 0-26.383872-7.832712-31.978666-21.260214-19.140086-44.99393-28.916253-92.63802-28.916253-141.98999 0-183.1559 136.807446-337.98447 318.255456-360.36365 19.14009-2.29681 36.33672 11.30737 38.63353 30.21189 2.29681 19.14008-11.30737 36.33671-30.21189 38.63352-146.40693 18.37449-257.007183 143.5212-257.007183 291.63602 0 39.81138 7.832712 78.44491 23.321453 114.66384 7.47936 17.60888-0.7656 38.103492-18.374477 45.523956-4.534728 1.943454-9.128349 2.944628-13.72197 2.944628z" fill="#2cccbf"/>
  <path d="m157.95191-273.07545c-1.70788 0-3.41577-0.17668-5.35922-0.76561-11.30738-2.88573-18.19781-14.36978-15.1354-25.85384 29.85854-116.37172 134.92289-197.52568 255.12263-197.52568 61.42495 0 121.14202 21.61357 168.19718 60.65935 9.01056 7.47935 10.12952 20.84797 2.65017 29.85853-7.47936 9.01056-20.84797 10.12952-29.85854 2.65017-39.39913-32.74427-89.5756-50.88319-141.04771-50.88319-101.05965 0-189.10404 68.13871-214.13339 165.7237-2.47349 9.59949-11.0718 16.13657-20.43572 16.13657z" fill="#9ef2ed"/>
  <path d="m239.87148 161.31616c-2.12014 0-4.18138-0.41225-6.12483-0.94228-173.203054-52.82664-294.168397-220.670471-294.168397-408.41999 0-80.38836 22.791426-158.47991 66.0185735-225.61744 6.3015055-9.77617 19.3167635-12.60301 29.2696085-6.30151 9.776167 6.30151 12.60301 19.31677 6.301505 29.26961-38.8690975 60.48267-59.30482 130.68262-59.30482 202.88491 0 169.198359 108.715688 320.552269 264.07429 368.01968 11.07181 3.41577 17.4322 15.31207 13.95754 26.38387-2.65016 8.83389-11.0718 14.72315-20.02347 14.72315z" fill="#9ef2ed"/>
  <path d="m386.04284 105.66268c-104.47542 0-199.99917-39.634705-264.07429-110.0702204-10.12952-11.3073736-9.36392-28.6806826 1.88456-38.8690976 11.30737-10.129522 28.68068-9.363919 38.8691 1.884562 56.65465 62.190556 143.5212 95.70043 238.45602 91.695735 15.31207-0.765604 27.91508 11.071803 28.68068 26.383872 0.58893 15.135391-11.0718 27.915079-26.38387 28.680679-5.94815 0.29447-11.66073 0.29447-17.4322 0.29447z" fill="#2cccbf"/>
  <path d="m561.95495-85.91486c-7.83271-8.774993-21.02465-9.540597-29.85853-1.707884-17.4322 15.488746-36.74897 27.738401-58.00918 36.925642-1.11896 0.588926-2.47349 0.942281-3.65134 1.531207-2.88574 1.118959-5.94815 2.473488-9.01057 3.415769-0.17668 0.176678-0.58892 0.176678-0.7656 0.353356-3.65134 1.354529-7.24379 2.473488-10.89513 3.651339-8.24496 2.473488-16.66659 4.593621-25.08823 6.124827h-0.41225c-2.47349 0.353356-4.7703 0.765604-7.24379 1.118959-1.35453 0.176678-2.47348 0.412248-3.82801 0.588926-1.88457 0.176678-3.65134 0.588926-5.53591 0.765603-3.23909 0.412249-6.47818 0.588926-9.77616 0.765604-0.94228 0-1.88456 0-2.88574 0.176678-2.88573 0.176677-5.5359 0.176677-8.42164 0.176677h-3.41577c-22.55585-0.176677-44.99392-3.828017-66.43082-10.718448-11.0718-3.651339-22.9681 2.473488-26.61944 13.604184-3.65134 11.071804 2.47349 22.9681034 13.60419 26.6194429 24.67598 8.0093897 50.35314 12.2496549 76.38366 12.6030101h4.53473c4.18137 0 8.24496-0.1766775 12.42633-0.4122478 1.35453 0 2.65017-0.1766777 4.0047-0.1766777 2.65016-0.1766777 5.35922-0.412248 8.24496-0.5889257 3.41577-0.3533554 7.06711-0.7656034 10.54177-1.1189589 1.35453-0.1766777 2.65016-0.3533554 4.00469-0.5889257 2.88574-0.3533554 5.71258-0.9422811 8.59832-1.5312069 0.35335 0 0.7656-0.1766777 1.35453-0.1766777 13.78086-2.6501657 27.38504-6.30150516 40.57698-11.0718035 0.58892-0.1766777 1.11896-0.412248 1.70788-0.5889257 3.23909-1.1189589 6.71376-2.473488 9.95285-4.0046944 1.70788-0.765604 3.23909-1.35453 4.94697-2.120133 1.11896-0.588926 2.29681-0.942281 3.41577-1.531207 0.41225-0.176678 0.58893-0.353355 0.76561-0.353355 23.32145-10.718448 44.99392-24.675988 64.48736-41.931512 9.36392-7.832712 10.12952-21.024648 2.29681-29.799641z" fill="#9ef2ed"/>
 </g>
</svg>
